<?xml version="1.0" encoding="UTF-8" standalone="no"?>
<!-- Created with Inkscape (http://www.inkscape.org/) -->

<svg
   width="12.637161mm"
   height="12.601461mm"
   viewBox="0 0 12.637161 12.601461"
   version="1.1"
   id="svg1"
   xml:space="preserve"
   xmlns="http://www.w3.org/2000/svg"
   xmlns:svg="http://www.w3.org/2000/svg"><defs
     id="defs1" /><g
     id="layer1"
     transform="translate(-66.260761,-166.56202)"><rect
       style="fill:none;stroke:#6370ec;stroke-width:0.475385;stroke-linejoin:round;stroke-dasharray:none;stroke-opacity:1"
       id="rect47"
       width="1.0606955"
       height="2.1387563"
       x="173.96181"
       y="72.152061"
       ry="0.53034776"
       transform="matrix(0.70032517,0.71382396,-0.70928497,0.70492186,0,0)" /><rect
       style="fill:none;stroke:#6370ec;stroke-width:0.475385;stroke-linejoin:round;stroke-dasharray:none;stroke-opacity:1"
       id="rect47-3"
       width="1.0776396"
       height="1.9805021"
       x="175.21378"
       y="72.226265"
       ry="0.53881979"
       transform="matrix(0.70032517,0.71382396,-0.70928497,0.70492186,0,0)" /><rect
       style="fill:none;stroke:#6370ec;stroke-width:0.475385;stroke-linejoin:round;stroke-dasharray:none;stroke-opacity:1"
       id="rect47-8"
       width="1.1185259"
       height="1.6387744"
       x="176.32674"
       y="72.392189"
       ry="0.54116738"
       transform="matrix(0.70032517,0.71382396,-0.70928497,0.70492186,0,0)" /><rect
       style="fill:none;stroke:#6370ec;stroke-width:0.475385;stroke-linejoin:round;stroke-dasharray:none;stroke-opacity:1"
       id="rect47-7"
       width="1.0012512"
       height="1.6122819"
       x="172.93336"
       y="72.4823"
       ry="0.50062561"
       transform="matrix(0.70032517,0.71382396,-0.70928497,0.70492186,0,0)" /><path
       style="fill:none;stroke:#6370ec;stroke-width:0.535;stroke-linejoin:round;stroke-dasharray:none;stroke-opacity:1"
       d="m 69.012857,175.06645 -2.484603,-2.7037 2.397787,-2.87735 1.190624,0.97565 1.471746,0.41341 -1.157552,1.65365 c -0.200097,0.28585 -0.221379,0.81637 0.04961,1.02526 0.294543,0.22705 0.795543,0.16066 1.07487,-0.31419 l 0.661458,-1.12448 1.240235,-0.0165 2.943489,3.00964 c 0.300086,0.267 0.330154,0.70841 0.194301,0.91777 -0.148031,0.22812 -0.524514,0.42117 -0.835091,0.11576 l -1.740462,-1.71153 1.707389,1.74046 c 0.141338,0.14408 0.09359,0.54381 -0.03881,0.7005 -0.170054,0.20127 -0.612697,0.25032 -0.796293,0.0891 l -1.186491,-1.0418 1.149284,1.08314 c 0.223973,0.21108 0.124992,0.61961 -0.07383,0.83392 -0.111913,0.12064 -0.586026,0.24267 -0.837618,0.0118 l -0.75047,-0.68859 0.955274,0.9033 c 0,0 -0.02022,0.31464 -0.138065,0.51725 -0.07263,0.12488 -0.510351,0.47544 -0.866193,0.24013 l -0.664419,-0.43937"
       id="path47" /><path
       style="fill:none;stroke:#6370ec;stroke-width:0.535;stroke-linecap:round;stroke-linejoin:round;stroke-miterlimit:13;stroke-dasharray:none;stroke-opacity:1"
       d="m 76.449303,175.01474 0.841897,-1.62533 1.339233,-1.16461 -2.012341,-2.65098 -1.43164,0.9391 2.139829,2.75956 0.0028,0.003 -2.142662,-2.75631 -2.33861,0.0409 -1.204383,0.30402"
       id="path48" /><path
       style="fill:none;stroke:#6370ec;stroke-width:0.535;stroke-linejoin:round;stroke-dasharray:none;stroke-opacity:1"
       d="m 71.561415,169.37371 -1.870885,-1.8475"
       id="path49" /><path
       style="fill:none;stroke:#6370ec;stroke-width:0.535;stroke-linejoin:round;stroke-dasharray:none;stroke-opacity:1"
       d="m 74.009179,169.42957 1.814089,-1.9033"
       id="path49-3" /><path
       style="fill:none;stroke:#6370ec;stroke-width:0.563;stroke-linejoin:round;stroke-dasharray:none;stroke-opacity:1"
       d="m 72.806315,169.55629 -0.0041,-2.00346 m 0.009,-0.44749 0.0019,-0.54234"
       id="path49-3-4" /></g></svg>
