<?xml version="1.0" encoding="UTF-8" standalone="no"?>
<!-- Created with Inkscape (http://www.inkscape.org/) -->

<svg
   width="10.708685mm"
   height="9.4362621mm"
   viewBox="0 0 10.708685 9.4362621"
   version="1.1"
   id="svg1"
   xml:space="preserve"
   xmlns="http://www.w3.org/2000/svg"
   xmlns:svg="http://www.w3.org/2000/svg"><defs
     id="defs1" /><g
     id="layer1"
     transform="translate(-42.304295,-196.92668)"><path
       id="rect49"
       style="fill:none;stroke:#42c3fa;stroke-width:0.535001;stroke-linecap:round;stroke-linejoin:round;stroke-miterlimit:13;stroke-dasharray:none;stroke-opacity:1"
       d="m 44.709335,197.19417 c -0.285976,0.006 -0.53046,0.25254 -0.561206,0.57981 l -0.141593,1.50844 h 6.640421 c 0.31148,0 0.56224,0.28241 0.56224,0.63303 v 4.72891 l 0.395324,0.0372 c 0.310115,0.0291 0.586288,-0.22814 0.619084,-0.57722 l 0.518831,-5.52318 c 0.0328,-0.34909 -0.190629,-0.65351 -0.500744,-0.68265 l -7.474479,-0.70228 c -0.01938,-0.002 -0.03881,-0.002 -0.05788,-0.002 z m -0.702799,2.08825 h -0.867131 c -0.31148,0 -0.56224,0.28241 -0.56224,0.63303 v 5.54695 c 0,0.35063 0.25076,0.63304 0.56224,0.63304 h 7.507552 c 0.31148,0 0.56224,-0.28241 0.56224,-0.63304 v -0.81804" /><path
       id="path50"
       style="fill:none;stroke:#42c3fa;stroke-width:0.535001;stroke-linecap:round;stroke-linejoin:round;stroke-miterlimit:13;stroke-dasharray:none;stroke-opacity:1"
       d="m 42.571795,203.74407 2.196663,-1.68475 c 0.190428,-0.14605 0.47854,-0.10058 0.575499,-0.0216 0,0 1.494135,1.33508 2.094502,1.89366 0.223298,0.20775 0.613276,0.16411 0.838397,3e-4 l 2.777596,-2.02117" /><path
       style="fill:none;stroke:#42c3fa;stroke-width:0.535001;stroke-linecap:round;stroke-linejoin:round;stroke-miterlimit:13;stroke-dasharray:none;stroke-opacity:1"
       id="path51"
       d="m 48.222595,201.94696 a 0.868164,0.868164 0 0 1 -1.164339,-0.37372 0.868164,0.868164 0 0 1 0.36438,-1.16729 0.868164,0.868164 0 0 1 1.170174,0.35502 0.868164,0.868164 0 0 1 -0.345641,1.17298" /></g></svg>
